<svg t="1651491283555" class="icon" viewBox="0 0 1024 1024" version="1.1" xmlns="http://www.w3.org/2000/svg" p-id="7862" data-spm-anchor-id="a313x.7781069.0.i37" width="200" height="200"><path d="M521.4 510c-13.3 0-25.2-7-31.7-18.8-31.9-57.6-49.2-126.7-50.1-200-0.9-73.3 14.8-142.8 45.4-201.1 6.3-12.1 18.2-19.4 31.7-19.6 13.5-0.2 25.6 6.9 32.2 18.8 31.9 57.6 49.2 126.7 50.1 200 0.9 73.3-14.8 142.8-45.4 201.1-6.3 12.1-18.2 19.4-31.7 19.6h-0.5z m-4.2-423.5h-0.2c-7.5 0.1-14.2 4.2-17.7 11-29.3 56-44.4 122.9-43.6 193.5 0.8 70.6 17.5 137.1 48.1 192.4 3.7 6.6 10.3 10.6 17.7 10.6h0.2c7.5-0.1 14.2-4.2 17.7-11 29.3-56 44.4-122.9 43.6-193.5-0.8-70.6-17.5-137.1-48.1-192.4-3.7-6.6-10.3-10.6-17.7-10.6z" fill="#17abe3" p-id="7863" data-spm-anchor-id="a313x.7781069.0.i40" class=""></path><path d="M500.8 510.7c-6.5 0-12.9-1.8-18.9-5.3-56.4-33.9-106-85.1-143.4-148.1-37.4-63-58.5-131.1-61.2-196.9-0.6-13.6 6.1-25.9 17.7-32.8 11.6-6.9 25.6-6.8 37.3 0.2 56.4 33.9 106 85.1 143.4 148.1 37.4 63 58.5 131.1 61.2 196.9 0.6 13.6-6.1 25.9-17.7 32.8-5.8 3.4-12.1 5.1-18.4 5.1zM313.4 138.5c-3.5 0-7 0.9-10.2 2.8-6.5 3.8-10.2 10.7-9.9 18.4 2.6 63.1 23 128.6 59 189.4 36 60.7 83.7 110 137.9 142.6 6.6 4 14.4 4 20.9 0.2 6.5-3.8 10.2-10.7 9.9-18.4-2.6-63.1-23-128.6-59-189.4-36-60.7-83.7-110-137.9-142.6-3.4-2-7-3-10.7-3z" fill="#17abe3" p-id="7864" data-spm-anchor-id="a313x.7781069.0.i42" class=""></path><path d="M483 521.7h-0.7c-65.8-1.1-134.4-20.7-198.2-56.6-63.9-35.9-116.2-84.3-151.4-139.9-7.3-11.5-7.7-25.5-1.1-37.3 6.6-11.8 18.8-18.7 32.4-18.5 65.8 1.1 134.4 20.7 198.2 56.6 63.8 36 116.2 84.3 151.4 139.9 7.3 11.5 7.7 25.5 1.1 37.3-6.5 11.6-18.3 18.5-31.7 18.5zM163.3 285.5c-7.5 0-14.1 3.8-17.8 10.3-3.7 6.6-3.5 14.4 0.6 20.9 33.8 53.4 84.2 99.9 145.8 134.5 61.6 34.6 127.5 53.5 190.7 54.6 7.7 0.2 14.5-3.7 18.2-10.3 3.7-6.6 3.5-14.4-0.6-20.9-33.8-53.4-84.2-99.9-145.8-134.5-61.6-34.6-127.5-53.5-190.7-54.6h-0.4z" fill="#17abe3" p-id="7865" data-spm-anchor-id="a313x.7781069.0.i41" class=""></path><path d="M285.1 585.6c-71.2 0-138.6-15.7-195.4-45.4-12.1-6.3-19.4-18.2-19.6-31.7C70 495 77 482.9 89 476.3c57.6-31.9 126.7-49.2 200-50.1 73.3-0.8 142.8 14.8 201.1 45.4 12.1 6.3 19.4 18.2 19.6 31.7 0.2 13.5-6.9 25.6-18.8 32.2-57.6 31.9-126.7 49.2-200 50.1h-5.8z m3.9-151.4l0.1 8c-70.6 0.8-137.1 17.5-192.4 48.1-6.7 3.7-10.7 10.4-10.6 18 0.1 7.5 4.2 14.2 11 17.7 56 29.3 122.8 44.4 193.5 43.6 70.6-0.8 137.1-17.5 192.4-48.1 6.7-3.7 10.7-10.4 10.6-18-0.1-7.5-4.2-14.2-11-17.7-56-29.3-122.9-44.4-193.5-43.6l-0.1-8z" fill="#17abe3" p-id="7866" data-spm-anchor-id="a313x.7781069.0.i43" class=""></path><path d="M158.5 747.9c-13 0-24.6-6.5-31.2-17.7-6.9-11.6-6.8-25.6 0.2-37.3 33.9-56.4 85.1-106 148.1-143.4 63-37.4 131.1-58.5 196.9-61.2 13.6-0.6 25.9 6.1 32.8 17.7 6.9 11.6 6.8 25.6-0.2 37.3-33.9 56.4-85.1 106-148.1 143.4-63 37.4-131.1 58.5-196.9 61.2h-1.6zM474 504.3h-0.9c-63.1 2.6-128.6 23-189.4 59-60.7 36-110 83.7-142.6 137.9-4 6.6-4 14.4-0.2 20.9 3.8 6.5 10.7 10.2 18.4 9.9 63.1-2.6 128.6-23 189.4-59 60.7-36 110-83.7 142.6-137.9 4-6.6 4-14.4 0.2-20.9-3.7-6.3-10.2-9.9-17.5-9.9z" fill="#17abe3" p-id="7867" data-spm-anchor-id="a313x.7781069.0.i44" class=""></path><path d="M305.2 898.4c-6.1 0-12.1-1.6-17.7-4.7-11.8-6.6-18.7-18.7-18.5-32.4 1.1-65.8 20.7-134.4 56.6-198.2 35.9-63.9 84.3-116.2 139.9-151.4 11.5-7.3 25.5-7.7 37.3-1.1 11.8 6.6 18.7 18.7 18.5 32.4-1.1 65.8-20.7 134.4-56.6 198.2s-84.3 116.2-139.9 151.4c-6.1 3.8-12.8 5.8-19.6 5.8z m179.9-376.5c-3.8 0-7.6 1.1-11 3.3-53.4 33.8-99.9 84.2-134.5 145.8-34.6 61.6-53.5 127.5-54.6 190.7-0.1 7.7 3.7 14.5 10.3 18.2 6.6 3.7 14.4 3.5 20.9-0.6 53.4-33.8 99.9-84.2 134.5-145.8 34.6-61.6 53.5-127.5 54.6-190.7 0.1-7.7-3.7-14.5-10.3-18.2-3.1-1.9-6.5-2.7-9.9-2.7z" fill="#17abe3" p-id="7868" data-spm-anchor-id="a313x.7781069.0.i45" class=""></path><path d="M507.7 955.1c-13.3 0-25.2-7-31.7-18.8-31.9-57.6-49.2-126.7-50.1-200-0.9-73.3 14.8-142.8 45.4-201.1 6.3-12.1 18.2-19.4 31.7-19.6 13.5-0.2 25.6 6.9 32.2 18.8 31.9 57.6 49.2 126.7 50.1 200 0.9 73.3-14.8 142.8-45.4 201.1-6.3 12.1-18.2 19.4-31.7 19.6h-0.5z m-65.9-219c0.8 70.6 17.5 137.1 48.1 192.4 3.7 6.7 10.4 10.7 18 10.6 7.5-0.1 14.2-4.2 17.7-11 29.3-56 44.4-122.9 43.6-193.5-0.8-70.6-17.5-137.1-48.1-192.4-3.7-6.7-10.4-10.7-18-10.6-7.5 0.1-14.2 4.2-17.7 11-29.3 56-44.4 122.9-43.6 193.5z" fill="#17abe3" p-id="7869" data-spm-anchor-id="a313x.7781069.0.i49" class="selected"></path><path d="M711.4 903.1c-6.5 0-12.9-1.8-18.9-5.3-56.4-33.9-106-85.1-143.4-148.1-37.4-63-58.5-131.1-61.2-196.9-0.6-13.6 6.1-25.9 17.7-32.8 11.6-6.9 25.6-6.8 37.3 0.2 56.4 33.9 106 85.1 143.4 148.1 37.4 63 58.5 131.1 61.2 196.9 0.6 13.6-6.1 25.9-17.7 32.8-5.7 3.4-12.1 5.1-18.4 5.1zM524.1 530.9c-3.5 0-7 0.9-10.2 2.8-6.5 3.8-10.2 10.7-9.9 18.4 2.6 63.1 23 128.6 59 189.3 36 60.7 83.7 110 137.9 142.6 6.6 4 14.4 4 20.9 0.2 6.5-3.8 10.2-10.7 9.9-18.4-2.6-63.1-23-128.6-59-189.4-36-60.7-83.7-110-137.9-142.6-3.5-1.9-7.1-2.9-10.7-2.9z" fill="#17abe3" p-id="7870" data-spm-anchor-id="a313x.7781069.0.i50" class="selected"></path><path d="M861.6 756.1h-0.7c-65.8-1.1-134.4-20.7-198.2-56.6-63.9-35.9-116.2-84.3-151.4-139.9-7.3-11.5-7.7-25.5-1.1-37.3 6.6-11.8 18.7-18.7 32.4-18.5 65.8 1.1 134.4 20.7 198.2 56.6s116.2 84.4 151.4 140c7.3 11.5 7.7 25.5 1.1 37.3-6.5 11.6-18.4 18.4-31.7 18.4zM541.9 519.9c-7.5 0-14.1 3.8-17.8 10.3-3.7 6.6-3.5 14.4 0.6 20.9 33.8 53.4 84.2 99.9 145.8 134.5 61.6 34.6 127.5 53.5 190.7 54.6h0.4c7.5 0 14.1-3.8 17.8-10.3 3.7-6.6 3.5-14.4-0.6-20.9-33.8-53.4-84.2-99.9-145.8-134.5S605.4 521 542.2 519.9h-0.3z" fill="#17abe3" p-id="7871" data-spm-anchor-id="a313x.7781069.0.i51" class="selected"></path><path d="M730.2 599.4c-71.2 0-138.6-15.7-195.4-45.4-12.1-6.3-19.4-18.2-19.6-31.7-0.2-13.5 6.9-25.6 18.8-32.2 57.6-31.9 126.7-49.2 200-50.1 73.3-0.9 142.8 14.8 201.1 45.4 12.1 6.3 19.4 18.2 19.6 31.7 0.2 13.5-6.9 25.6-18.8 32.2-57.6 31.9-126.7 49.2-200 50.1h-5.7z m9.5-143.5h-5.5c-70.6 0.8-137.1 17.5-192.4 48.1-6.7 3.7-10.7 10.4-10.6 18 0.1 7.5 4.2 14.2 11 17.7 56 29.3 122.9 44.4 193.5 43.6 70.6-0.8 137.1-17.5 192.4-48.1 6.7-3.7 10.7-10.4 10.6-18-0.1-7.5-4.2-14.2-11-17.7-54.5-28.5-119.4-43.6-188-43.6z" fill="#17abe3" p-id="7872" data-spm-anchor-id="a313x.7781069.0.i52" class="selected"></path><path d="M550.8 537.3c-13 0-24.6-6.5-31.2-17.7-6.9-11.6-6.8-25.6 0.2-37.3 33.9-56.4 85.1-106 148.1-143.4 63-37.4 131.1-58.5 196.9-61.2h1.6c13 0 24.6 6.5 31.2 17.7 6.9 11.6 6.8 25.6-0.2 37.3-33.9 56.4-85.1 106-148.1 143.4s-131.1 58.5-196.9 61.2h-1.6z m315.5-243.6h-0.9c-63.1 2.6-128.6 23-189.3 59-60.7 36-110 83.7-142.6 137.9-3.9 6.6-4 14.4-0.2 20.9 3.8 6.5 10.7 10.2 18.4 9.9 63.1-2.6 128.6-23 189.3-59 60.7-36 110-83.7 142.6-137.9 3.9-6.6 4-14.4 0.2-20.9-3.7-6.3-10.2-9.9-17.5-9.9z" fill="#17abe3" p-id="7873" data-spm-anchor-id="a313x.7781069.0.i53" class="selected"></path><path d="M539.7 519.8c-6.1 0-12.1-1.6-17.7-4.7-11.8-6.6-18.7-18.7-18.5-32.4 1.1-65.8 20.7-134.4 56.6-198.2 36-63.9 84.3-116.3 139.9-151.5 11.5-7.3 25.5-7.7 37.3-1.1 11.8 6.6 18.7 18.7 18.5 32.4-1.1 65.8-20.7 134.4-56.6 198.2-35.9 63.9-84.3 116.2-139.9 151.4-6.1 3.9-12.8 5.9-19.6 5.9z m179.9-376.5c-3.8 0-7.6 1.1-11 3.3-53.4 33.8-99.9 84.2-134.5 145.8-34.6 61.6-53.5 127.5-54.6 190.7-0.1 7.7 3.7 14.5 10.3 18.2 6.6 3.7 14.4 3.5 20.9-0.6 53.4-33.8 99.9-84.2 134.5-145.8 34.6-61.6 53.5-127.5 54.6-190.7 0.1-7.7-3.7-14.5-10.3-18.2-3.1-1.9-6.5-2.7-9.9-2.7z" fill="#17abe3" p-id="7874" data-spm-anchor-id="a313x.7781069.0.i54" class="selected"></path><path d="M514.4 511.8m-79.6 0a79.6 79.6 0 1 0 159.2 0 79.6 79.6 0 1 0-159.2 0Z" fill="#17abe3" p-id="7875" data-spm-anchor-id="a313x.7781069.0.i35" class="selected"></path></svg>